<svg width="3909" height="3909" viewBox="0 0 3909 3909" fill="none" xmlns="http://www.w3.org/2000/svg">
<rect width="3909" height="3909" fill="#6B1F2A"/>
<path d="M2682 1763.72C2711.62 1626.67 2702.05 1484.05 2654.38 1352.19C2606.71 1220.33 2522.87 1104.56 2412.46 1018.13C2302.04 931.713 2169.52 878.136 2030.07 863.539C1890.61 848.942 1749.87 873.915 1623.95 935.598C1498.03 997.281 1392.03 1093.18 1318.09 1212.31C1244.15 1331.44 1205.25 1468.99 1205.86 1609.21C1206.46 1749.42 1246.55 1886.63 1321.52 2005.12C1396.48 2123.61 1503.31 2218.59 1629.75 2279.18L1828.86 1863.69C1780.45 1840.5 1739.56 1804.14 1710.86 1758.78C1682.16 1713.42 1666.81 1660.89 1666.58 1607.22C1666.35 1553.54 1681.24 1500.89 1709.55 1455.28C1737.85 1409.67 1778.43 1372.96 1826.63 1349.35C1874.84 1325.74 1928.72 1316.17 1982.1 1321.76C2035.49 1327.35 2086.22 1347.86 2128.49 1380.94C2170.76 1414.03 2202.85 1458.35 2221.1 1508.83C2239.35 1559.31 2243.01 1613.9 2231.67 1666.37L2682 1763.72Z" fill="white"/>
<path d="M2048.13 1875.21C1893.46 1930.72 1761.43 2035.72 1672.51 2173.91C1583.6 2312.11 1542.76 2475.78 1556.35 2639.55L2015.5 2601.46C2010.3 2538.77 2025.93 2476.11 2059.97 2423.21C2094.01 2370.3 2144.55 2330.11 2203.76 2308.86L2048.13 1875.21Z" fill="white"/>
<path d="M2200.24 2310.12C2323.84 2266.61 2433.81 2191.33 2519.1 2091.84C2604.39 1992.36 2661.98 1872.17 2686.1 1743.37L2233.24 1658.58C2224.01 1707.88 2201.96 1753.89 2169.31 1791.98C2136.66 1830.06 2094.57 1858.88 2047.25 1875.54L2200.24 2310.12Z" fill="white"/>
<circle cx="1810.17" cy="2952.4" r="238" fill="white"/>
</svg>
